<svg xmlns="http://www.w3.org/2000/svg" viewBox="0 0 512 512" width="512" height="512" role="img" aria-label="WSDMailer logo">
  <defs>
    <linearGradient id="g" x1="0" y1="0" x2="1" y2="1">
      <stop offset="0" stop-color="#2563eb"/>
      <stop offset="1" stop-color="#1e40af"/>
    </linearGradient>
  </defs>
  <rect x="32" y="32" width="448" height="448" rx="96" ry="96" fill="url(#g)"/>
  <g fill="#ffffff">
    <path d="M128 176c-17.673 0-32 14.327-32 32v96c0 17.673 14.327 32 32 32h256c17.673 0 32-14.327 32-32v-96c0-17.673-14.327-32-32-32H128zm16 32h224c2.91 0 5.692.79 8.08 2.2L256 272 135.92 210.2A16 16 0 0 1 144 208zm-32 26.246V304c0 8.837 7.163 16 16 16h256c8.837 0 16-7.163 16-16v-69.754l-164.536 82.268a16 16 0 0 1-14.928 0L112 234.246z"/>
  </g>
</svg>
